<svg xmlns="http://www.w3.org/2000/svg" xmlns:xlink="http://www.w3.org/1999/xlink" fill="none" version="1.1" width="48" height="48" viewBox="0 0 48 48"><defs><clipPath id="master_svg0_33_026590"><rect x="11" y="11" width="26" height="26" rx="0"/></clipPath><clipPath id="master_svg1_33_019859"><rect x="11" y="11" width="26" height="26" rx="0"/></clipPath></defs><g><rect x="0" y="0" width="48" height="48" rx="12" fill="#F3F4F6" fill-opacity="1" style="mix-blend-mode:passthrough"/><g clip-path="url(#master_svg0_33_026590)"><g clip-path="url(#master_svg1_33_019859)"><path d="M21.99999999038696,17L21.99999999038696,22.1722136Q21.99973489038696,23.4147449,21.12110659038696,24.293108L19.028416590386964,26.385798L20.177020590386963,26.6154Q20.994824390386963,26.778948,21.821362490386964,26.668242Q22.647899190386962,26.557538,23.393768790386964,26.184583L23.714039290386964,26.02545Q24.755986690386962,25.5044441,25.913135990386962,25.3494587Q26.943233990386965,25.2114897,27.963556990386962,25.3777695L26.87900199038696,24.2932148Q26.000263990386962,23.4147429,26.000000990386965,22.1719999L26.000000990386965,17L21.99999999038696,17ZM28.000000990386965,17.4142134L28.000000990386965,22.1719999Q28.000088990386963,22.5859637,28.293000990386965,22.878787L33.293107990386964,27.878895Q34.71068799038696,29.296473,33.943033990386965,31.148418Q33.17553199038696,33,31.171001990386962,33L16.828000090386965,33Q14.823304494206964,33,14.056350530386963,31.148136Q13.289431190386964,29.296356,14.706893840386963,27.878894000000003L19.706892490386963,22.8788939Q19.999911790386964,22.5859642,19.99999999038696,22.1717863L19.99999999038696,17.4142139L19.292892890386963,16.70710677Q19.223248990386963,16.63746279,19.168529990386965,16.55557019Q19.113810990386963,16.47367758,19.076119890386963,16.3826834Q19.038428790386963,16.29168922,19.01921419038696,16.19509031Q18.999999490386962,16.0984914,18.999999490386962,16Q18.999999490386962,15.9015086,19.01921419038696,15.80490969Q19.038428790386963,15.70831078,19.076119890386963,15.6173166Q19.113810990386963,15.52632242,19.168529990386965,15.44442981Q19.223248990386963,15.36253721,19.292892890386963,15.29289323Q19.433544590386962,15.15224099,19.61731579038696,15.07612062Q19.801086890386962,15.00000012,19.99999999038696,15.00000006L28.000000990386965,15Q28.09849199038696,15.00000006,28.195090990386962,15.01921481Q28.291688990386962,15.03842956,28.38268299038696,15.07612062Q28.473676990386963,15.113811609999999,28.555569990386964,15.16853046Q28.637462990386965,15.22324938,28.70710699038696,15.29289329Q28.776750990386965,15.36253726,28.831469990386964,15.44442981Q28.886188990386962,15.52632242,28.923879990386965,15.6173166Q28.961570990386964,15.70831078,28.980785990386963,15.80490969Q28.99999999038696,15.9015086,29.000000990386965,16Q28.99999999038696,16.19891235,28.923879990386965,16.3826834Q28.84775999038696,16.56645441,28.707107990386962,16.70710677L28.000000990386965,17.4142134ZM30.720859990386963,28.135075999999998Q30.50676799038696,27.920963999999998,30.210041990386962,27.861612L27.822900990386962,27.384583Q27.005176990386964,27.221052999999998,26.178639990386962,27.331758Q25.35210299038696,27.442462,24.603961490386965,27.816551L24.288235190386963,27.973418000000002Q23.244016190386965,28.495555,22.086866890386965,28.650541Q20.929718990386963,28.805528000000002,19.78498269038696,28.576601L17.854092390386963,28.190621Q17.608246790386964,28.141506,17.368307790386964,28.214179Q17.12836909038696,28.286852,16.951091990386963,28.464122L16.950950590386963,28.463981Q16.939715190386963,28.475215,16.928128490386964,28.486088000000002L16.12110719038696,29.293109Q15.648539480386964,29.765676,15.904149490386963,30.382865000000002Q16.159737790386963,31,16.828000090386965,31L31.171001990386962,31Q31.839542990386963,31,32.09546899038696,30.382583Q32.35126699038696,29.765479,31.878894990386964,29.293108L30.720861990386965,28.135075L30.720859990386963,28.135075999999998Z" fill-rule="evenodd" fill="#4B5563" fill-opacity="1"/></g></g></g></svg>