<svg xmlns="http://www.w3.org/2000/svg" xmlns:xlink="http://www.w3.org/1999/xlink" fill="none" version="1.1" width="40" height="40" viewBox="0 0 40 40"><defs><clipPath id="master_svg0_33_027874"><rect x="9.166666686534882" y="9.166666686534882" width="21.666666626930237" height="21.666666626930237" rx="0"/></clipPath><clipPath id="master_svg1_33_019887"><rect x="9.166666686534882" y="9.166666686534882" width="21.666666626930237" height="21.666666626930237" rx="0"/></clipPath></defs><g><rect x="0" y="0" width="40" height="40" rx="12" fill="#FEF2F2" fill-opacity="1" style="mix-blend-mode:passthrough"/><g clip-path="url(#master_svg0_33_027874)"><g clip-path="url(#master_svg1_33_019887)"><path d="M12.061737569379883,22.916508139419555L12.061640169379883,22.916677139419555Q11.339814789379883,24.166447139419553,12.061404199379883,25.416505139419556Q12.783052949379883,26.666666139419554,14.226666589379883,26.666666139419554L25.773333989379882,26.666666139419554Q27.216948989379883,26.666666139419554,27.938597989379883,25.416506139419553Q28.66023598937988,24.166363139419555,27.938262989379883,22.916510139419557L22.165027589379882,12.916675749419555Q21.44308658937988,11.666874769419556,20.000000489379882,11.666874829419555Q18.556914289379883,11.666874829419555,17.83507058937988,12.916507069419556L12.061737569379883,22.916508139419555ZM13.504846039379883,24.583286139419556Q13.264345349379884,24.166651139419557,13.504929299379883,23.750159139419555L13.505026459379883,23.749991139419556L19.278262089379883,13.750159539419556Q19.518919489379883,13.333541569419555,20.000000489379882,13.333541569419555Q20.481081489379882,13.333541569419555,20.72164058937988,13.749990839419556L26.495070989379883,23.750161139419554Q26.735655989379882,24.166653139419555,26.495154989379884,24.583287139419554Q26.254608989379882,25.000000139419555,25.773333989379882,25.000000139419555L14.226666589379883,25.000000139419555Q13.745391889379883,25.000000139419555,13.504846039379883,24.583286139419556ZM20.833332989379883,17.550024739419555Q20.834833189379882,17.525035139419558,20.834833189379882,17.500000239419556Q20.834833189379882,17.417776339419554,20.818792389379883,17.337131739419554Q20.802750589379883,17.256488039419555,20.77128508937988,17.180523139419556Q20.739818589379883,17.104558239419553,20.694137589379885,17.036191239419555Q20.648456589379883,16.967824739419555,20.590315789379883,16.909683939419555Q20.532174089379883,16.851542739419557,20.463807589379883,16.805861739419555Q20.395441089379883,16.760180739419557,20.319476089379883,16.728714739419555Q20.243511189379884,16.697249139419554,20.162867089379883,16.681207939419558Q20.082223389379884,16.665167139419555,19.999999989379884,16.665167139419555Q19.917775589379882,16.665167139419555,19.837131489379882,16.681207939419558Q19.756487389379885,16.697249139419554,19.680522489379882,16.728714739419555Q19.604557989379884,16.760180739419557,19.53619148937988,16.805861739419555Q19.467824889379884,16.851542739419557,19.409683689379882,16.909683939419555Q19.35154248937988,16.967824739419555,19.305861489379883,17.036191239419555Q19.260179989379882,17.104558239419553,19.228714489379882,17.180523139419556Q19.19724848937988,17.256488039419555,19.18120768937988,17.337132239419557Q19.165166889379883,17.417776339419554,19.165166889379883,17.500000239419556Q19.165166889379883,17.525030839419557,19.16666648937988,17.550017139419555L19.16666648937988,19.116650339419557Q19.165166889379883,19.141636639419556,19.165166889379883,19.166667239419557Q19.165166889379883,19.248890639419557,19.18120768937988,19.329534739419557Q19.19724848937988,19.410178439419557,19.228713989379884,19.486143339419556Q19.260179489379883,19.562108239419555,19.305860989379884,19.630474839419556Q19.35154248937988,19.698841339419555,19.409683189379884,19.756983039419556Q19.467824489379883,19.815123839419556,19.536190989379882,19.860804839419558Q19.604557989379884,19.906485839419556,19.680522889379883,19.937951339419556Q19.756487889379883,19.969416839419555,19.837131489379882,19.985458639419555Q19.917775589379882,20.001499939419556,19.999999989379884,20.001500339419557Q20.082223389379884,20.001499939419556,20.162867089379883,19.985458639419555Q20.243511189379884,19.969416839419555,20.319476089379883,19.937951339419556Q20.395441089379883,19.906485839419556,20.463807089379884,19.860804839419558Q20.532174089379883,19.815123839419556,20.590315789379883,19.756983039419556Q20.648456589379883,19.698841339419555,20.694137589379885,19.630475239419557Q20.739818589379883,19.562108239419555,20.77128508937988,19.486143339419556Q20.802750589379883,19.410178439419557,20.818792389379883,19.329534339419556Q20.834833189379882,19.248890639419557,20.834833189379882,19.166667239419557Q20.834833189379882,19.141632339419555,20.833332989379883,19.116642739419554L20.833332989379883,17.550024739419555ZM20.004166589379885,23.334823139419555L19.999999989379884,23.33483313941956Q19.917775589379882,23.33483313941956,19.837131489379882,23.318791139419556Q19.756487389379885,23.302750139419558,19.680522489379882,23.271284139419556Q19.604557989379884,23.239819139419556,19.53619148937988,23.194137139419556Q19.467824889379884,23.148456139419558,19.409683689379882,23.090315139419555Q19.35154248937988,23.032173139419555,19.305861489379883,22.963806139419553Q19.260179989379882,22.895439139419558,19.228714489379882,22.819475139419556Q19.19724848937988,22.743511139419553,19.18120768937988,22.662867139419554Q19.165166889379883,22.582224139419555,19.165166889379883,22.500000239419556Q19.165166889379883,22.417776339419554,19.18120768937988,22.337131739419554Q19.19724848937988,22.256488039419555,19.228713989379884,22.180523139419556Q19.260179489379883,22.104557239419556,19.305860989379884,22.036191239419555Q19.35154248937988,21.967824239419556,19.409683189379884,21.909683439419556Q19.467824489379883,21.851541739419556,19.536190989379882,21.805860739419558Q19.604557989379884,21.760179739419556,19.680522889379883,21.728714239419556Q19.756487889379883,21.697248739419557,19.837131489379882,21.681207939419558Q19.917775589379882,21.665167139419555,19.999999989379884,21.665167139419555L20.004166589379885,21.665177539419556L20.008333189379883,21.665167139419555Q20.090556189379882,21.665167139419555,20.171200289379883,21.681207939419558Q20.251844389379883,21.697248739419557,20.327809289379882,21.728714239419556Q20.403774289379882,21.760179739419556,20.472140789379882,21.805860739419558Q20.54050728937988,21.851541739419556,20.598648989379882,21.909683439419556Q20.656789789379882,21.967824239419556,20.70247078937988,22.036191239419555Q20.748151789379882,22.104557239419556,20.779617289379885,22.180522239419556Q20.811082889379882,22.256487139419555,20.827124589379885,22.337131739419554Q20.84316638937988,22.417776339419554,20.84316638937988,22.500000239419556Q20.84316638937988,22.582224139419555,20.827124589379885,22.662867139419554Q20.811082889379882,22.743511139419553,20.779617289379885,22.819475139419556Q20.748151789379882,22.895439139419558,20.70247078937988,22.963806139419553Q20.656789789379882,23.032173139419555,20.598648989379882,23.090315139419555Q20.54050728937988,23.148456139419558,20.472140789379882,23.194137139419556Q20.403774289379882,23.239819139419556,20.327809289379882,23.271284139419556Q20.251844389379883,23.302750139419558,20.171200289379883,23.318791139419556Q20.090556189379882,23.33483313941956,20.008333189379883,23.33483313941956L20.004167989379884,23.334823139419555L20.004166589379885,23.334823139419555Z" fill-rule="evenodd" fill="#EF4444" fill-opacity="1"/></g></g></g></svg>