<svg xmlns="http://www.w3.org/2000/svg" xmlns:xlink="http://www.w3.org/1999/xlink" fill="none" version="1.1" width="46" height="46" viewBox="0 0 46 46"><defs><filter id="master_svg0_33_034340" filterUnits="objectBoundingBox" color-interpolation-filters="sRGB" x="-0.1" y="-0.075" width="1.2" height="1.2"><feFlood flood-opacity="0" result="BackgroundImageFix"/><feColorMatrix in="SourceAlpha" type="matrix" values="0 0 0 0 0 0 0 0 0 0 0 0 0 0 0 0 0 0 127 0"/><feOffset dy="0" dx="0"/><feGaussianBlur stdDeviation="0"/><feColorMatrix type="matrix" values="0 0 0 0 0 0 0 0 0 0 0 0 0 0 0 0 0 0 0 0"/><feBlend mode="normal" in2="BackgroundImageFix" result="effect1_dropShadow"/><feColorMatrix in="SourceAlpha" type="matrix" values="0 0 0 0 0 0 0 0 0 0 0 0 0 0 0 0 0 0 127 0"/><feOffset dy="0" dx="0"/><feGaussianBlur stdDeviation="0"/><feColorMatrix type="matrix" values="0 0 0 0 0 0 0 0 0 0 0 0 0 0 0 0 0 0 0 0"/><feBlend mode="normal" in2="effect1_dropShadow" result="effect2_dropShadow"/><feColorMatrix in="SourceAlpha" type="matrix" values="0 0 0 0 0 0 0 0 0 0 0 0 0 0 0 0 0 0 127 0"/><feOffset dy="1" dx="0"/><feGaussianBlur stdDeviation="1"/><feColorMatrix type="matrix" values="0 0 0 0 0 0 0 0 0 0 0 0 0 0 0 0 0 0 0.05000000074505806 0"/><feBlend mode="normal" in2="effect2_dropShadow" result="effect3_dropShadow"/><feBlend mode="normal" in="SourceGraphic" in2="effect3_dropShadow" result="shape"/></filter><clipPath id="master_svg1_33_034348"><rect x="12.166666686534882" y="11.166666686534882" width="21.666666626930237" height="21.666666626930237" rx="0"/></clipPath><clipPath id="master_svg2_33_032436"><rect x="12.166666686534882" y="11.166666686534882" width="21.666666626930237" height="21.666666626930237" rx="0"/></clipPath></defs><g filter="url(#master_svg0_33_034340)"><rect x="3" y="2" width="40" height="40" rx="12" fill="#FFFFFF" fill-opacity="1" style="mix-blend-mode:passthrough"/><g clip-path="url(#master_svg1_33_034348)"><g clip-path="url(#master_svg2_33_032436)"><path d="M30.194365253860475,19.6883688Q30.082703253860473,19.5970078,29.946824253860473,19.5485039Q29.810945253860474,19.5,29.666668253860472,19.4999995L24.666666253860473,19.4999995L24.666666253860473,14.5Q24.666665353860473,14.417923838,24.650653153860475,14.33742474Q24.634640953860476,14.25692564,24.603231653860476,14.18109715Q24.571822453860474,14.10526866,24.526223453860474,14.03702486Q24.48062445386047,13.968780989999999,24.42258855386047,13.91074437Q24.364551753860475,13.85270774,24.296307753860475,13.80710876Q24.228063853860473,13.76150966,24.152235253860475,13.73010051Q24.076406753860475,13.69869125,23.995908053860475,13.682679Q23.915409353860476,13.66666675,23.833333253860474,13.66666669Q23.740761053860474,13.66666669,23.650445653860473,13.68698317Q23.560129853860474,13.70729959,23.476474953860475,13.74694192Q23.392819653860474,13.78658426,23.319904553860475,13.84361947Q23.246989053860474,13.90065473,23.188368553860474,13.9723019L15.688368793860473,23.1389694Q15.636395093860473,23.2024927,15.597812893860473,23.2749357Q15.559230623860474,23.3473778,15.535522523860473,23.4259548Q15.511814473860474,23.5045319,15.503891583860474,23.586225499999998Q15.495968813860474,23.6679173,15.504135603860474,23.7495871Q15.512302513860474,23.831255,15.536245343860474,23.9097614Q15.560188113860473,23.9882679,15.598986623860474,24.0605946Q15.637785193860473,24.1329212,15.689948443860473,24.1962891Q15.742111743860473,24.2596569,15.805635153860473,24.3116322Q15.917298943860473,24.402994200000002,16.053177863860473,24.451498Q16.189056783860472,24.500000999999997,16.333333253860474,24.500000999999997L21.333333753860472,24.500000999999997L21.333333753860472,29.5Q21.333333253860474,29.582075,21.349345453860472,29.662574Q21.365357653860475,29.743073000000003,21.396766853860473,29.8189Q21.428176153860473,29.894728,21.473775153860473,29.962972999999998Q21.519374153860475,30.031216999999998,21.577410953860472,30.089254Q21.635447753860475,30.147289999999998,21.703691753860475,30.192889Q21.771935253860473,30.238487,21.847763753860473,30.269897Q21.923592353860474,30.301307,22.004091453860475,30.317320000000002Q22.084590653860474,30.333332,22.166667253860474,30.333333Q22.259239953860472,30.333333,22.349555253860473,30.313017000000002Q22.43987105386047,30.292701,22.523525953860474,30.253057Q22.607181353860476,30.213416000000002,22.680096853860473,30.156381Q22.753011953860472,30.099346,22.811631953860473,30.027698L30.311632253860473,20.8610315Q30.416597253860473,20.7327404,30.464478253860474,20.5740461Q30.512359253860474,20.4153514,30.495865253860472,20.2504134Q30.479371253860474,20.0854759,30.401013253860473,19.939405Q30.322656253860472,19.793334,30.194365253860475,19.6883688ZM27.908133253860473,21.166666499999998L23.833333253860474,21.166666499999998Q23.751256753860474,21.166666,23.670757553860476,21.1506538Q23.59025785386047,21.134641600000002,23.514429353860475,21.1032319Q23.438600753860474,21.0718231,23.370357253860472,21.0262241Q23.302113753860475,20.9806252,23.244076953860475,20.9225883Q23.186040153860475,20.8645515,23.140441153860472,20.7963076Q23.094842153860473,20.7280636,23.063432953860474,20.652235Q23.032023653860474,20.5764065,23.016011953860474,20.4959078Q22.999999253860473,20.415409099999998,22.99999975386047,20.333333L22.99999975386047,16.8345065L18.091868853860475,22.833334L22.166667253860474,22.833334Q22.248743253860475,22.833334,22.329241953860475,22.8493462Q22.409741153860473,22.865358399999998,22.485569753860474,22.8967676Q22.561398253860474,22.9281769,22.629642253860474,22.9737759Q22.697885753860476,23.0193748,22.755922553860472,23.0774117Q22.813959353860476,23.135448500000003,22.859557853860473,23.203691499999998Q22.905157353860474,23.271935499999998,22.936566153860475,23.347763999999998Q22.967975853860473,23.4235926,22.98398805386047,23.504092200000002Q23.000000253860474,23.584590900000002,23.000000753860473,23.6666679L23.000000753860473,27.165492999999998L27.908133253860473,21.166666499999998Z" fill-rule="evenodd" fill="#2563EB" fill-opacity="1"/></g></g></g></svg>